<mxfile host="app.diagrams.net" agent="Mozilla/5.0 (X11; Linux x86_64; rv:134.0) Gecko/20100101 Firefox/134.0" version="28.2.7">
  <diagram name="Página-1" id="f7JLobuLxYHMZcBMMCIe">
    <mxGraphModel dx="1426" dy="789" grid="1" gridSize="10" guides="1" tooltips="1" connect="1" arrows="1" fold="1" page="1" pageScale="1" pageWidth="1654" pageHeight="2336" math="0" shadow="0">
      <root>
        <mxCell id="0" />
        <mxCell id="1" parent="0" />
        <mxCell id="imCwS9_JOclL1ImIh5cK-5" value="USUARIOS" style="swimlane;fontStyle=0;childLayout=stackLayout;horizontal=1;startSize=30;horizontalStack=0;resizeParent=1;resizeParentMax=0;resizeLast=0;collapsible=1;marginBottom=0;whiteSpace=wrap;html=1;" vertex="1" parent="1">
          <mxGeometry x="80" y="82.5" width="140" height="120" as="geometry" />
        </mxCell>
        <mxCell id="imCwS9_JOclL1ImIh5cK-6" value="NOMBRE" style="text;strokeColor=none;fillColor=none;align=left;verticalAlign=middle;spacingLeft=4;spacingRight=4;overflow=hidden;points=[[0,0.5],[1,0.5]];portConstraint=eastwest;rotatable=0;whiteSpace=wrap;html=1;" vertex="1" parent="imCwS9_JOclL1ImIh5cK-5">
          <mxGeometry y="30" width="140" height="30" as="geometry" />
        </mxCell>
        <mxCell id="imCwS9_JOclL1ImIh5cK-7" value="CORREO" style="text;strokeColor=none;fillColor=none;align=left;verticalAlign=middle;spacingLeft=4;spacingRight=4;overflow=hidden;points=[[0,0.5],[1,0.5]];portConstraint=eastwest;rotatable=0;whiteSpace=wrap;html=1;" vertex="1" parent="imCwS9_JOclL1ImIh5cK-5">
          <mxGeometry y="60" width="140" height="30" as="geometry" />
        </mxCell>
        <mxCell id="imCwS9_JOclL1ImIh5cK-8" value="DNI" style="text;strokeColor=none;fillColor=none;align=left;verticalAlign=middle;spacingLeft=4;spacingRight=4;overflow=hidden;points=[[0,0.5],[1,0.5]];portConstraint=eastwest;rotatable=0;whiteSpace=wrap;html=1;" vertex="1" parent="imCwS9_JOclL1ImIh5cK-5">
          <mxGeometry y="90" width="140" height="30" as="geometry" />
        </mxCell>
        <mxCell id="imCwS9_JOclL1ImIh5cK-50" style="edgeStyle=orthogonalEdgeStyle;rounded=0;orthogonalLoop=1;jettySize=auto;html=1;entryX=0.5;entryY=0;entryDx=0;entryDy=0;" edge="1" parent="1" source="imCwS9_JOclL1ImIh5cK-9" target="imCwS9_JOclL1ImIh5cK-49">
          <mxGeometry relative="1" as="geometry" />
        </mxCell>
        <mxCell id="imCwS9_JOclL1ImIh5cK-9" value="ESTACIÓN DE BUS" style="swimlane;fontStyle=0;childLayout=stackLayout;horizontal=1;startSize=30;horizontalStack=0;resizeParent=1;resizeParentMax=0;resizeLast=0;collapsible=1;marginBottom=0;whiteSpace=wrap;html=1;" vertex="1" parent="1">
          <mxGeometry x="900" y="112.5" width="140" height="60" as="geometry" />
        </mxCell>
        <mxCell id="imCwS9_JOclL1ImIh5cK-10" value="NOMBRE" style="text;strokeColor=none;fillColor=none;align=left;verticalAlign=middle;spacingLeft=4;spacingRight=4;overflow=hidden;points=[[0,0.5],[1,0.5]];portConstraint=eastwest;rotatable=0;whiteSpace=wrap;html=1;" vertex="1" parent="imCwS9_JOclL1ImIh5cK-9">
          <mxGeometry y="30" width="140" height="30" as="geometry" />
        </mxCell>
        <mxCell id="imCwS9_JOclL1ImIh5cK-13" value="CIUDADES" style="swimlane;fontStyle=0;childLayout=stackLayout;horizontal=1;startSize=30;horizontalStack=0;resizeParent=1;resizeParentMax=0;resizeLast=0;collapsible=1;marginBottom=0;whiteSpace=wrap;html=1;" vertex="1" parent="1">
          <mxGeometry x="900" y="555" width="140" height="90" as="geometry" />
        </mxCell>
        <mxCell id="imCwS9_JOclL1ImIh5cK-14" value="NOMBRE" style="text;strokeColor=none;fillColor=none;align=left;verticalAlign=middle;spacingLeft=4;spacingRight=4;overflow=hidden;points=[[0,0.5],[1,0.5]];portConstraint=eastwest;rotatable=0;whiteSpace=wrap;html=1;" vertex="1" parent="imCwS9_JOclL1ImIh5cK-13">
          <mxGeometry y="30" width="140" height="30" as="geometry" />
        </mxCell>
        <mxCell id="imCwS9_JOclL1ImIh5cK-15" value="POBLACION" style="text;strokeColor=none;fillColor=none;align=left;verticalAlign=middle;spacingLeft=4;spacingRight=4;overflow=hidden;points=[[0,0.5],[1,0.5]];portConstraint=eastwest;rotatable=0;whiteSpace=wrap;html=1;" vertex="1" parent="imCwS9_JOclL1ImIh5cK-13">
          <mxGeometry y="60" width="140" height="30" as="geometry" />
        </mxCell>
        <mxCell id="imCwS9_JOclL1ImIh5cK-17" value="AUTOBUSES" style="swimlane;fontStyle=0;childLayout=stackLayout;horizontal=1;startSize=30;horizontalStack=0;resizeParent=1;resizeParentMax=0;resizeLast=0;collapsible=1;marginBottom=0;whiteSpace=wrap;html=1;" vertex="1" parent="1">
          <mxGeometry x="90" y="530" width="140" height="120" as="geometry" />
        </mxCell>
        <mxCell id="imCwS9_JOclL1ImIh5cK-18" value="MARCA" style="text;strokeColor=none;fillColor=none;align=left;verticalAlign=middle;spacingLeft=4;spacingRight=4;overflow=hidden;points=[[0,0.5],[1,0.5]];portConstraint=eastwest;rotatable=0;whiteSpace=wrap;html=1;" vertex="1" parent="imCwS9_JOclL1ImIh5cK-17">
          <mxGeometry y="30" width="140" height="30" as="geometry" />
        </mxCell>
        <mxCell id="imCwS9_JOclL1ImIh5cK-19" value="CAPACIDAD" style="text;strokeColor=none;fillColor=none;align=left;verticalAlign=middle;spacingLeft=4;spacingRight=4;overflow=hidden;points=[[0,0.5],[1,0.5]];portConstraint=eastwest;rotatable=0;whiteSpace=wrap;html=1;" vertex="1" parent="imCwS9_JOclL1ImIh5cK-17">
          <mxGeometry y="60" width="140" height="30" as="geometry" />
        </mxCell>
        <mxCell id="imCwS9_JOclL1ImIh5cK-20" value="AÑO MATRICULACION" style="text;strokeColor=none;fillColor=none;align=left;verticalAlign=middle;spacingLeft=4;spacingRight=4;overflow=hidden;points=[[0,0.5],[1,0.5]];portConstraint=eastwest;rotatable=0;whiteSpace=wrap;html=1;" vertex="1" parent="imCwS9_JOclL1ImIh5cK-17">
          <mxGeometry y="90" width="140" height="30" as="geometry" />
        </mxCell>
        <mxCell id="imCwS9_JOclL1ImIh5cK-41" style="edgeStyle=orthogonalEdgeStyle;rounded=0;orthogonalLoop=1;jettySize=auto;html=1;exitX=0.5;exitY=0;exitDx=0;exitDy=0;entryX=0.5;entryY=1;entryDx=0;entryDy=0;" edge="1" parent="1" source="imCwS9_JOclL1ImIh5cK-21" target="imCwS9_JOclL1ImIh5cK-37">
          <mxGeometry relative="1" as="geometry" />
        </mxCell>
        <mxCell id="imCwS9_JOclL1ImIh5cK-21" value="VIAJES" style="swimlane;fontStyle=0;childLayout=stackLayout;horizontal=1;startSize=30;horizontalStack=0;resizeParent=1;resizeParentMax=0;resizeLast=0;collapsible=1;marginBottom=0;whiteSpace=wrap;html=1;" vertex="1" parent="1">
          <mxGeometry x="480" y="560" width="140" height="150" as="geometry" />
        </mxCell>
        <mxCell id="imCwS9_JOclL1ImIh5cK-24" value="FECHA" style="text;strokeColor=none;fillColor=none;align=left;verticalAlign=middle;spacingLeft=4;spacingRight=4;overflow=hidden;points=[[0,0.5],[1,0.5]];portConstraint=eastwest;rotatable=0;whiteSpace=wrap;html=1;" vertex="1" parent="imCwS9_JOclL1ImIh5cK-21">
          <mxGeometry y="30" width="140" height="30" as="geometry" />
        </mxCell>
        <mxCell id="imCwS9_JOclL1ImIh5cK-25" value="HORA DE SALIDA" style="text;strokeColor=none;fillColor=none;align=left;verticalAlign=middle;spacingLeft=4;spacingRight=4;overflow=hidden;points=[[0,0.5],[1,0.5]];portConstraint=eastwest;rotatable=0;whiteSpace=wrap;html=1;" vertex="1" parent="imCwS9_JOclL1ImIh5cK-21">
          <mxGeometry y="60" width="140" height="30" as="geometry" />
        </mxCell>
        <mxCell id="imCwS9_JOclL1ImIh5cK-66" value="ESTACIÓN LLEGADA" style="text;strokeColor=none;fillColor=none;align=left;verticalAlign=middle;spacingLeft=4;spacingRight=4;overflow=hidden;points=[[0,0.5],[1,0.5]];portConstraint=eastwest;rotatable=0;whiteSpace=wrap;html=1;" vertex="1" parent="imCwS9_JOclL1ImIh5cK-21">
          <mxGeometry y="90" width="140" height="30" as="geometry" />
        </mxCell>
        <mxCell id="imCwS9_JOclL1ImIh5cK-67" value="ESTACIÓN SALIDA" style="text;strokeColor=none;fillColor=none;align=left;verticalAlign=middle;spacingLeft=4;spacingRight=4;overflow=hidden;points=[[0,0.5],[1,0.5]];portConstraint=eastwest;rotatable=0;whiteSpace=wrap;html=1;" vertex="1" parent="imCwS9_JOclL1ImIh5cK-21">
          <mxGeometry y="120" width="140" height="30" as="geometry" />
        </mxCell>
        <mxCell id="imCwS9_JOclL1ImIh5cK-27" value="TIENE" style="rhombus;whiteSpace=wrap;html=1;" vertex="1" parent="1">
          <mxGeometry x="320" y="565" width="80" height="80" as="geometry" />
        </mxCell>
        <mxCell id="imCwS9_JOclL1ImIh5cK-30" value="BILLETES ASIGNADOS" style="swimlane;fontStyle=0;childLayout=stackLayout;horizontal=1;startSize=30;horizontalStack=0;resizeParent=1;resizeParentMax=0;resizeLast=0;collapsible=1;marginBottom=0;whiteSpace=wrap;html=1;" vertex="1" parent="1">
          <mxGeometry x="498.5" y="80" width="140" height="130" as="geometry" />
        </mxCell>
        <mxCell id="imCwS9_JOclL1ImIh5cK-31" value="PRECIO" style="text;strokeColor=none;fillColor=none;align=left;verticalAlign=middle;spacingLeft=4;spacingRight=4;overflow=hidden;points=[[0,0.5],[1,0.5]];portConstraint=eastwest;rotatable=0;whiteSpace=wrap;html=1;" vertex="1" parent="imCwS9_JOclL1ImIh5cK-30">
          <mxGeometry y="30" width="140" height="30" as="geometry" />
        </mxCell>
        <mxCell id="imCwS9_JOclL1ImIh5cK-32" value="RESERVADO MINUSVALIDOS" style="text;strokeColor=none;fillColor=none;align=left;verticalAlign=middle;spacingLeft=4;spacingRight=4;overflow=hidden;points=[[0,0.5],[1,0.5]];portConstraint=eastwest;rotatable=0;whiteSpace=wrap;html=1;" vertex="1" parent="imCwS9_JOclL1ImIh5cK-30">
          <mxGeometry y="60" width="140" height="40" as="geometry" />
        </mxCell>
        <mxCell id="imCwS9_JOclL1ImIh5cK-33" value="VENDIDOS" style="text;strokeColor=none;fillColor=none;align=left;verticalAlign=middle;spacingLeft=4;spacingRight=4;overflow=hidden;points=[[0,0.5],[1,0.5]];portConstraint=eastwest;rotatable=0;whiteSpace=wrap;html=1;" vertex="1" parent="imCwS9_JOclL1ImIh5cK-30">
          <mxGeometry y="100" width="140" height="30" as="geometry" />
        </mxCell>
        <mxCell id="imCwS9_JOclL1ImIh5cK-36" style="edgeStyle=orthogonalEdgeStyle;rounded=0;orthogonalLoop=1;jettySize=auto;html=1;entryX=-0.007;entryY=0.267;entryDx=0;entryDy=0;entryPerimeter=0;" edge="1" parent="1" source="imCwS9_JOclL1ImIh5cK-34" target="imCwS9_JOclL1ImIh5cK-31">
          <mxGeometry relative="1" as="geometry" />
        </mxCell>
        <mxCell id="imCwS9_JOclL1ImIh5cK-34" value="COMPRADOS" style="rhombus;whiteSpace=wrap;html=1;" vertex="1" parent="1">
          <mxGeometry x="330" y="75" width="80" height="85" as="geometry" />
        </mxCell>
        <mxCell id="imCwS9_JOclL1ImIh5cK-35" style="edgeStyle=orthogonalEdgeStyle;rounded=0;orthogonalLoop=1;jettySize=auto;html=1;entryX=0;entryY=0.5;entryDx=0;entryDy=0;exitX=0.986;exitY=0.183;exitDx=0;exitDy=0;exitPerimeter=0;" edge="1" parent="1" source="imCwS9_JOclL1ImIh5cK-6" target="imCwS9_JOclL1ImIh5cK-34">
          <mxGeometry relative="1" as="geometry">
            <mxPoint x="230" y="120" as="sourcePoint" />
          </mxGeometry>
        </mxCell>
        <mxCell id="imCwS9_JOclL1ImIh5cK-43" style="edgeStyle=orthogonalEdgeStyle;rounded=0;orthogonalLoop=1;jettySize=auto;html=1;exitX=0.5;exitY=0;exitDx=0;exitDy=0;" edge="1" parent="1" source="imCwS9_JOclL1ImIh5cK-37">
          <mxGeometry relative="1" as="geometry">
            <mxPoint x="550" y="210" as="targetPoint" />
          </mxGeometry>
        </mxCell>
        <mxCell id="imCwS9_JOclL1ImIh5cK-37" value="TIENE" style="rhombus;whiteSpace=wrap;html=1;" vertex="1" parent="1">
          <mxGeometry x="498.5" y="310" width="103" height="100" as="geometry" />
        </mxCell>
        <mxCell id="imCwS9_JOclL1ImIh5cK-39" style="edgeStyle=orthogonalEdgeStyle;rounded=0;orthogonalLoop=1;jettySize=auto;html=1;" edge="1" parent="1" source="imCwS9_JOclL1ImIh5cK-27" target="imCwS9_JOclL1ImIh5cK-19">
          <mxGeometry relative="1" as="geometry" />
        </mxCell>
        <mxCell id="imCwS9_JOclL1ImIh5cK-44" value="1" style="text;html=1;whiteSpace=wrap;strokeColor=none;fillColor=none;align=center;verticalAlign=middle;rounded=0;" vertex="1" parent="1">
          <mxGeometry x="200" y="82.5" width="60" height="30" as="geometry" />
        </mxCell>
        <mxCell id="imCwS9_JOclL1ImIh5cK-45" value="M" style="text;html=1;whiteSpace=wrap;strokeColor=none;fillColor=none;align=center;verticalAlign=middle;rounded=0;" vertex="1" parent="1">
          <mxGeometry x="450" y="82.5" width="60" height="30" as="geometry" />
        </mxCell>
        <mxCell id="imCwS9_JOclL1ImIh5cK-46" value="1" style="text;html=1;whiteSpace=wrap;strokeColor=none;fillColor=none;align=center;verticalAlign=middle;rounded=0;" vertex="1" parent="1">
          <mxGeometry x="530" y="525" width="60" height="30" as="geometry" />
        </mxCell>
        <mxCell id="imCwS9_JOclL1ImIh5cK-47" value="M" style="text;html=1;whiteSpace=wrap;strokeColor=none;fillColor=none;align=center;verticalAlign=middle;rounded=0;" vertex="1" parent="1">
          <mxGeometry x="530" y="210" width="60" height="30" as="geometry" />
        </mxCell>
        <mxCell id="imCwS9_JOclL1ImIh5cK-48" style="edgeStyle=orthogonalEdgeStyle;rounded=0;orthogonalLoop=1;jettySize=auto;html=1;entryX=1;entryY=0.5;entryDx=0;entryDy=0;" edge="1" parent="1" source="imCwS9_JOclL1ImIh5cK-24" target="imCwS9_JOclL1ImIh5cK-27">
          <mxGeometry relative="1" as="geometry" />
        </mxCell>
        <mxCell id="imCwS9_JOclL1ImIh5cK-51" style="edgeStyle=orthogonalEdgeStyle;rounded=0;orthogonalLoop=1;jettySize=auto;html=1;entryX=0.5;entryY=0;entryDx=0;entryDy=0;" edge="1" parent="1" source="imCwS9_JOclL1ImIh5cK-49" target="imCwS9_JOclL1ImIh5cK-13">
          <mxGeometry relative="1" as="geometry" />
        </mxCell>
        <mxCell id="imCwS9_JOclL1ImIh5cK-49" value="PERTENECE" style="rhombus;whiteSpace=wrap;html=1;" vertex="1" parent="1">
          <mxGeometry x="930" y="330" width="80" height="80" as="geometry" />
        </mxCell>
        <mxCell id="imCwS9_JOclL1ImIh5cK-52" value="1" style="text;html=1;whiteSpace=wrap;strokeColor=none;fillColor=none;align=center;verticalAlign=middle;rounded=0;" vertex="1" parent="1">
          <mxGeometry x="930" y="520" width="60" height="30" as="geometry" />
        </mxCell>
        <mxCell id="imCwS9_JOclL1ImIh5cK-53" value="M" style="text;html=1;whiteSpace=wrap;strokeColor=none;fillColor=none;align=center;verticalAlign=middle;rounded=0;" vertex="1" parent="1">
          <mxGeometry x="930" y="170" width="60" height="30" as="geometry" />
        </mxCell>
        <mxCell id="imCwS9_JOclL1ImIh5cK-54" value="1" style="text;html=1;whiteSpace=wrap;strokeColor=none;fillColor=none;align=center;verticalAlign=middle;rounded=0;" vertex="1" parent="1">
          <mxGeometry x="210" y="575" width="60" height="30" as="geometry" />
        </mxCell>
        <mxCell id="imCwS9_JOclL1ImIh5cK-55" value="1" style="text;html=1;whiteSpace=wrap;strokeColor=none;fillColor=none;align=center;verticalAlign=middle;rounded=0;" vertex="1" parent="1">
          <mxGeometry x="438.5" y="575" width="60" height="30" as="geometry" />
        </mxCell>
        <mxCell id="imCwS9_JOclL1ImIh5cK-56" value="CONTIENE" style="rhombus;whiteSpace=wrap;html=1;" vertex="1" parent="1">
          <mxGeometry x="730" y="330" width="100" height="80" as="geometry" />
        </mxCell>
        <mxCell id="imCwS9_JOclL1ImIh5cK-57" style="edgeStyle=orthogonalEdgeStyle;rounded=0;orthogonalLoop=1;jettySize=auto;html=1;entryX=0.007;entryY=0.083;entryDx=0;entryDy=0;entryPerimeter=0;" edge="1" parent="1" source="imCwS9_JOclL1ImIh5cK-56" target="imCwS9_JOclL1ImIh5cK-10">
          <mxGeometry relative="1" as="geometry" />
        </mxCell>
        <mxCell id="imCwS9_JOclL1ImIh5cK-58" style="edgeStyle=orthogonalEdgeStyle;rounded=0;orthogonalLoop=1;jettySize=auto;html=1;entryX=1.021;entryY=0.767;entryDx=0;entryDy=0;entryPerimeter=0;" edge="1" parent="1" source="imCwS9_JOclL1ImIh5cK-56" target="imCwS9_JOclL1ImIh5cK-24">
          <mxGeometry relative="1" as="geometry" />
        </mxCell>
        <mxCell id="imCwS9_JOclL1ImIh5cK-64" value="1" style="text;html=1;whiteSpace=wrap;strokeColor=none;fillColor=none;align=center;verticalAlign=middle;rounded=0;" vertex="1" parent="1">
          <mxGeometry x="860" y="140" width="60" height="30" as="geometry" />
        </mxCell>
        <mxCell id="imCwS9_JOclL1ImIh5cK-65" value="M" style="text;html=1;whiteSpace=wrap;strokeColor=none;fillColor=none;align=center;verticalAlign=middle;rounded=0;" vertex="1" parent="1">
          <mxGeometry x="600" y="580" width="60" height="30" as="geometry" />
        </mxCell>
        <mxCell id="imCwS9_JOclL1ImIh5cK-68" value="PERTENECE" style="rhombus;whiteSpace=wrap;html=1;" vertex="1" parent="1">
          <mxGeometry x="330" y="180" width="80" height="80" as="geometry" />
        </mxCell>
        <mxCell id="imCwS9_JOclL1ImIh5cK-70" style="edgeStyle=orthogonalEdgeStyle;rounded=0;orthogonalLoop=1;jettySize=auto;html=1;entryX=1;entryY=0.5;entryDx=0;entryDy=0;exitX=0.011;exitY=0.75;exitDx=0;exitDy=0;exitPerimeter=0;" edge="1" parent="1" source="imCwS9_JOclL1ImIh5cK-32" target="imCwS9_JOclL1ImIh5cK-68">
          <mxGeometry relative="1" as="geometry" />
        </mxCell>
        <mxCell id="imCwS9_JOclL1ImIh5cK-73" value="1" style="text;html=1;whiteSpace=wrap;strokeColor=none;fillColor=none;align=center;verticalAlign=middle;rounded=0;" vertex="1" parent="1">
          <mxGeometry x="460" y="140" width="60" height="30" as="geometry" />
        </mxCell>
        <mxCell id="imCwS9_JOclL1ImIh5cK-74" value="1" style="text;html=1;whiteSpace=wrap;strokeColor=none;fillColor=none;align=center;verticalAlign=middle;rounded=0;" vertex="1" parent="1">
          <mxGeometry x="200" y="140" width="60" height="30" as="geometry" />
        </mxCell>
        <mxCell id="imCwS9_JOclL1ImIh5cK-75" style="edgeStyle=orthogonalEdgeStyle;rounded=0;orthogonalLoop=1;jettySize=auto;html=1;entryX=0.986;entryY=0.05;entryDx=0;entryDy=0;entryPerimeter=0;" edge="1" parent="1" source="imCwS9_JOclL1ImIh5cK-68" target="imCwS9_JOclL1ImIh5cK-8">
          <mxGeometry relative="1" as="geometry" />
        </mxCell>
      </root>
    </mxGraphModel>
  </diagram>
</mxfile>
